<svg width="23" height="17" viewBox="0 0 23 17" fill="none" xmlns="http://www.w3.org/2000/svg">
<path d="M21.5422 16.7446C21.2748 16.7451 21.0144 16.6587 20.7992 16.4982L11.3956 9.47826L1.99215 16.4982C1.86013 16.5969 1.71019 16.6684 1.55088 16.7085C1.39157 16.7486 1.22602 16.7565 1.06367 16.7319C0.901323 16.7073 0.745362 16.6505 0.604692 16.5649C0.464021 16.4792 0.341397 16.3664 0.24382 16.2328C0.146243 16.0992 0.0756233 15.9475 0.0359941 15.7863C-0.00363509 15.6251 -0.0114981 15.4575 0.012854 15.2932C0.0620352 14.9615 0.23945 14.663 0.506069 14.4636L10.6526 6.88133C10.8676 6.72025 11.1281 6.6333 11.3956 6.6333C11.6632 6.6333 11.9237 6.72025 12.1387 6.88133L22.2852 14.4636C22.4971 14.6216 22.6542 14.8433 22.7341 15.097C22.8141 15.3508 22.8128 15.6236 22.7304 15.8765C22.648 16.1295 22.4887 16.3496 22.2753 16.5055C22.062 16.6614 21.8054 16.7451 21.5422 16.7446Z" fill="white"/>
<path d="M21.5422 10.1098C21.2748 10.1103 21.0144 10.0239 20.7992 9.86342L11.3957 2.8435L1.99215 9.86342C1.72553 10.0628 1.39155 10.1469 1.06368 10.0971C0.7358 10.0474 0.440891 9.86784 0.243825 9.59804C0.0467588 9.32824 -0.0363221 8.99027 0.0128591 8.65848C0.0620404 8.32669 0.239455 8.02826 0.506074 7.82884L10.6526 0.246569C10.8676 0.0854823 11.1281 -0.00146484 11.3957 -0.00146484C11.6632 -0.00146484 11.9237 0.0854823 12.1387 0.246569L22.2852 7.82884C22.4971 7.98684 22.6542 8.20854 22.7342 8.46228C22.8141 8.71602 22.8128 8.98883 22.7304 9.24176C22.648 9.49469 22.4887 9.71482 22.2754 9.87072C22.062 10.0266 21.8054 10.1103 21.5422 10.1098Z" fill="white"/>
</svg>
