<svg width="24" height="24" viewBox="0 0 24 24" fill="none" xmlns="http://www.w3.org/2000/svg">
<path d="M2.34153 24.0151C1.69761 24.0151 1.14638 23.7858 0.687826 23.3273C0.229275 22.8687 0 22.3175 0 21.6736V5.28283C0 4.63891 0.229275 4.08767 0.687826 3.62912C1.14638 3.17057 1.69761 2.9413 2.34153 2.9413H12.7906L10.4491 5.28283H2.34153V21.6736H18.7323V13.5367L21.0738 11.1952V21.6736C21.0738 22.3175 20.8445 22.8687 20.386 23.3273C19.9274 23.7858 19.3762 24.0151 18.7323 24.0151H2.34153ZM15.4249 3.61449L17.0932 5.25356L9.36614 12.9806V14.649H11.0052L18.7615 6.89264L20.4299 8.53171L12.6736 16.288C12.4589 16.5027 12.2101 16.6734 11.9272 16.8003C11.6443 16.9271 11.3467 16.9905 11.0345 16.9905H8.19537C7.86365 16.9905 7.5856 16.8783 7.3612 16.6539C7.1368 16.4295 7.0246 16.1515 7.0246 15.8197V12.9806C7.0246 12.6684 7.08314 12.3709 7.20022 12.0879C7.3173 11.805 7.48315 11.5562 7.6978 11.3416L15.4249 3.61449ZM20.4299 8.53171L15.4249 3.61449L18.3518 0.687568C18.8201 0.219261 19.3811 -0.0148926 20.0348 -0.0148926C20.6884 -0.0148926 21.2397 0.219261 21.6885 0.687568L23.3275 2.35591C23.7763 2.80471 24.0007 3.35106 24.0007 3.99499C24.0007 4.63891 23.7763 5.18527 23.3275 5.63406L20.4299 8.53171Z" fill="#CDCDCD"/>
</svg>
