<svg width="24" height="21" viewBox="0 0 24 21" fill="none" xmlns="http://www.w3.org/2000/svg">
<path d="M18.4615 1.84613L18.4615 18.4615C18.461 18.951 18.2664 19.4203 17.9203 19.7664C17.5742 20.1125 17.1049 20.3072 16.6154 20.3077L12.9231 20.3077C12.4336 20.3072 11.9643 20.1125 11.6182 19.7664C11.2721 19.4203 11.0774 18.951 11.0769 18.4615L11.0769 1.84613C11.0774 1.35665 11.2721 0.887353 11.6182 0.541238C11.9643 0.195123 12.4336 0.000461035 12.9231 -2.91751e-05L16.6154 -2.93365e-05C17.1049 0.000460831 17.5742 0.195123 17.9203 0.541238C18.2664 0.887353 18.461 1.35664 18.4615 1.84613ZM12.9231 18.4615L16.6154 18.4615L16.6154 1.84613L12.9231 1.84613L12.9231 18.4615ZM12.9231 1.84613L12.9231 18.4615C12.9226 18.951 12.7279 19.4203 12.3818 19.7664C12.0357 20.1125 11.5664 20.3072 11.0769 20.3076L7.38462 20.3076C6.89513 20.3072 6.42584 20.1125 6.07973 19.7664C5.73361 19.4203 5.53895 18.951 5.53846 18.4615L5.53846 1.84611C5.53895 1.35663 5.73361 0.887335 6.07973 0.541219C6.42584 0.195104 6.89513 0.000442203 7.38461 -4.60992e-05L11.0769 -4.62606e-05C11.5664 0.000441999 12.0357 0.195104 12.3818 0.541219C12.7279 0.887334 12.9226 1.35665 12.9231 1.84613ZM7.38462 18.4615L11.0769 18.4615L11.0769 1.84613L7.38461 1.84611L7.38462 18.4615ZM7.38461 1.84611L7.38462 18.4615C7.38413 18.951 7.18946 19.4203 6.84335 19.7664C6.49723 20.1125 6.02794 20.3072 5.53846 20.3076L1.84615 20.3076C1.35667 20.3072 0.887381 20.1125 0.541266 19.7664C0.195151 19.4203 0.000488688 18.951 -8.07075e-08 18.4615L-8.06989e-07 1.84611C0.000487919 1.35663 0.19515 0.887335 0.541265 0.54122C0.88738 0.195105 1.35667 0.000442446 1.84615 -4.58571e-05L5.53846 -4.60185e-05C6.02794 0.000442241 6.49723 0.195104 6.84335 0.541219C7.18946 0.887335 7.38413 1.35663 7.38461 1.84611ZM1.84615 18.4615L5.53846 18.4615L5.53846 1.84611L1.84615 1.84611L1.84615 18.4615Z" fill="#CDCDCD"/>
<path d="M24 1.84633L24 18.4617C23.9995 18.9512 23.8048 19.4205 23.4587 19.7666C23.1126 20.1127 22.6433 20.3074 22.1538 20.3079L18.4615 20.3079C17.9721 20.3074 17.5028 20.1127 17.1567 19.7666C16.8105 19.4205 16.6159 18.951 16.6154 18.4615L16.6154 1.84613C16.6159 1.35664 16.8105 0.887557 17.1567 0.541442C17.5028 0.195327 17.9721 0.000666786 18.4615 0.000176576L22.1538 0.000176415C22.6433 0.000666582 23.1126 0.195327 23.4587 0.541442C23.8048 0.887557 23.9995 1.35685 24 1.84633ZM18.4615 18.4615L22.1538 18.4617L22.1538 1.84633L18.4615 1.84613L18.4615 18.4615Z" fill="#CDCDCD"/>
</svg>
