<svg width="24" height="24" viewBox="0 0 24 24" fill="none" xmlns="http://www.w3.org/2000/svg">
<mask id="mask0_460511_1290" style="mask-type:alpha" maskUnits="userSpaceOnUse" x="0" y="0" width="24" height="24">
<rect width="24" height="24" fill="#D9D9D9"/>
</mask>
<g mask="url(#mask0_460511_1290)">
<path d="M12.0002 19.2C10.8802 19.2 9.8102 19.375 8.7902 19.725C7.7702 20.075 6.8402 20.6 6.0002 21.3V21.6H18.0002V21.3C17.1602 20.6 16.2302 20.075 15.2102 19.725C14.1902 19.375 13.1202 19.2 12.0002 19.2ZM3.6002 20.22C4.6802 19.16 5.9352 18.325 7.3652 17.715C8.7952 17.105 10.3402 16.8 12.0002 16.8C13.6602 16.8 15.2052 17.105 16.6352 17.715C18.0652 18.325 19.3202 19.16 20.4002 20.22V4.8H3.6002V20.22ZM12.0002 14.4C10.8402 14.4 9.8502 13.99 9.0302 13.17C8.2102 12.35 7.8002 11.36 7.8002 10.2C7.8002 9.04 8.2102 8.05 9.0302 7.23C9.8502 6.41 10.8402 6 12.0002 6C13.1602 6 14.1502 6.41 14.9702 7.23C15.7902 8.05 16.2002 9.04 16.2002 10.2C16.2002 11.36 15.7902 12.35 14.9702 13.17C14.1502 13.99 13.1602 14.4 12.0002 14.4ZM12.0002 12C12.5002 12 12.9252 11.825 13.2752 11.475C13.6252 11.125 13.8002 10.7 13.8002 10.2C13.8002 9.7 13.6252 9.275 13.2752 8.925C12.9252 8.575 12.5002 8.4 12.0002 8.4C11.5002 8.4 11.0752 8.575 10.7252 8.925C10.3752 9.275 10.2002 9.7 10.2002 10.2C10.2002 10.7 10.3752 11.125 10.7252 11.475C11.0752 11.825 11.5002 12 12.0002 12ZM3.6002 24C2.9402 24 2.3752 23.765 1.9052 23.295C1.4352 22.825 1.2002 22.26 1.2002 21.6V4.8C1.2002 4.14 1.4352 3.575 1.9052 3.105C2.3752 2.635 2.9402 2.4 3.6002 2.4H4.8002V1.2C4.8002 0.537258 5.33745 0 6.0002 0C6.66294 0 7.2002 0.537258 7.2002 1.2V2.4H16.8002V1.2C16.8002 0.537258 17.3375 0 18.0002 0C18.6629 0 19.2002 0.537259 19.2002 1.2V2.4H20.4002C21.0602 2.4 21.6252 2.635 22.0952 3.105C22.5652 3.575 22.8002 4.14 22.8002 4.8V21.6C22.8002 22.26 22.5652 22.825 22.0952 23.295C21.6252 23.765 21.0602 24 20.4002 24H3.6002Z" fill="#CDCDCD"/>
</g>
</svg>
