<svg width="20" height="20" viewBox="0 0 20 20" fill="none" xmlns="http://www.w3.org/2000/svg">
<path d="M18.1818 0H1.81818C0.814027 0 0 0.814982 0 1.81914C0 1.8449 0 1.86298 0 1.87198V18.2356C0 19.2101 0.790887 20 1.76533 20C1.79099 20 1.80908 20 1.81818 20H18.1818C18.1909 20 18.209 20 18.2347 20C19.2091 20 20 19.2101 20 18.2356V1.87195C20 1.86296 20 1.84488 20 1.81914C20 0.81498 19.186 0 18.1818 0ZM11.8182 18.2356H1.81818V10.9629H11.8182V18.2356ZM11.8182 9.14468H1.81818V1.87198L11.8182 1.87195V9.14468ZM18.1818 18.2356H13.6364V1.87198H18.1818V18.2356Z" fill="#CDCDCD"/>
</svg>
