<svg width="13" height="13" viewBox="0 0 13 13" fill="none" xmlns="http://www.w3.org/2000/svg">
<path d="M5.49 2.83333L1.40667 6.91667C1.24 7.08333 1.04556 7.16319 0.823333 7.15625C0.601111 7.14931 0.406667 7.0625 0.24 6.89583C0.0872222 6.72917 0.00736111 6.53472 0.000416667 6.3125C-0.00652778 6.09028 0.0733333 5.89583 0.24 5.72917L5.74 0.229167C5.82333 0.145833 5.91361 0.0868056 6.01083 0.0520833C6.10806 0.0173611 6.21222 0 6.32333 0C6.43444 0 6.53861 0.0173611 6.63583 0.0520833C6.73306 0.0868056 6.82333 0.145833 6.90667 0.229167L12.4067 5.72917C12.5594 5.88194 12.6358 6.07292 12.6358 6.30208C12.6358 6.53125 12.5594 6.72917 12.4067 6.89583C12.24 7.0625 12.0421 7.14583 11.8129 7.14583C11.5838 7.14583 11.3858 7.0625 11.2192 6.89583L7.15667 2.83333V12.1458C7.15667 12.3819 7.07681 12.5799 6.91708 12.7396C6.75736 12.8993 6.55944 12.9792 6.32333 12.9792C6.08722 12.9792 5.88931 12.8993 5.72958 12.7396C5.56986 12.5799 5.49 12.3819 5.49 12.1458V2.83333Z" fill="white"/>
</svg>
