<svg width="13" height="13" viewBox="0 0 13 13" fill="none" xmlns="http://www.w3.org/2000/svg">
<path d="M5.47917 10.1458V0.833333C5.47917 0.597222 5.55903 0.399306 5.71875 0.239583C5.87847 0.0798611 6.07639 0 6.3125 0C6.54861 0 6.74653 0.0798611 6.90625 0.239583C7.06597 0.399306 7.14583 0.597222 7.14583 0.833333V10.1458L11.2292 6.0625C11.3958 5.89583 11.5903 5.81597 11.8125 5.82292C12.0347 5.82986 12.2292 5.91667 12.3958 6.08333C12.5486 6.25 12.6285 6.44444 12.6354 6.66667C12.6424 6.88889 12.5625 7.08333 12.3958 7.25L6.89583 12.75C6.8125 12.8333 6.72222 12.8924 6.625 12.9271C6.52778 12.9618 6.42361 12.9792 6.3125 12.9792C6.20139 12.9792 6.09722 12.9618 6 12.9271C5.90278 12.8924 5.8125 12.8333 5.72917 12.75L0.229167 7.25C0.0763889 7.09722 0 6.90625 0 6.67708C0 6.44792 0.0763889 6.25 0.229167 6.08333C0.395833 5.91667 0.59375 5.83333 0.822917 5.83333C1.05208 5.83333 1.25 5.91667 1.41667 6.08333L5.47917 10.1458Z" fill="white"/>
</svg>
